<!DOCTYPE svg PUBLIC "-//W3C//DTD SVG 20010904//EN" "http://www.w3.org/TR/2001/REC-SVG-20010904/DTD/svg10.dtd">
<svg version="1.0" xmlns="http://www.w3.org/2000/svg" width="1198px" height="1200px" viewBox="0 0 11980 12000" preserveAspectRatio="xMidYMid meet">
<g id="layer101" fill="#86c045" stroke="none">
 <path d="M0 6000 l0 -6000 5990 0 5990 0 0 6000 0 6000 -5990 0 -5990 0 0 -6000z"/>
 </g>
<g id="layer102" fill="#2f92ce" stroke="none">
 <path d="M0 6000 l0 -6000 5990 0 5990 0 0 6000 0 6000 -5990 0 -5990 0 0 -6000z m5635 2489 c8 -11 -18 -136 -42 -209 -33 -102 -94 -225 -159 -327 -57 -89 -215 -253 -329 -342 -39 -30 -83 -70 -99 -89 l-29 -34 69 38 c38 20 96 54 130 76 34 21 64 38 68 38 11 0 119 90 160 133 73 77 143 184 175 270 20 51 31 18 31 -86 0 -69 -7 -125 -20 -172 -20 -76 -93 -225 -116 -238 -8 -4 -14 -12 -14 -18 0 -12 -11 -27 -65 -84 -54 -59 -160 -129 -269 -180 -148 -69 -206 -95 -213 -95 -11 0 -168 -81 -184 -96 -8 -8 -20 -14 -24 -14 -5 0 -29 -19 -53 -42 l-44 -43 7 130 c17 332 109 578 309 828 38 48 192 174 271 221 33 20 53 36 44 36 -55 0 -452 -171 -550 -238 -87 -58 -110 -72 -118 -72 -5 0 -11 -3 -13 -8 -4 -10 -84 -72 -92 -72 -4 0 -12 -5 -19 -10 -7 -6 -23 -19 -37 -31 -86 -69 -274 -251 -345 -333 -63 -73 -156 -198 -229 -309 -35 -54 -138 -241 -152 -277 -3 -8 -10 -24 -15 -35 -22 -51 -79 -200 -79 -206 0 -4 -5 -20 -12 -36 -6 -15 -19 -57 -29 -93 -128 -455 -129 -908 -3 -1375 14 -49 28 -97 31 -105 3 -8 7 -19 8 -25 18 -75 186 -437 223 -481 5 -6 29 -42 53 -80 37 -59 106 -153 184 -254 51 -65 301 -303 385 -368 52 -39 100 -76 107 -82 7 -5 16 -10 22 -10 5 0 11 -3 13 -7 2 -5 15 -15 30 -23 14 -8 57 -34 95 -56 136 -83 405 -209 468 -220 6 -1 44 -13 85 -27 99 -33 228 -63 370 -84 195 -29 626 -23 790 11 8 1 31 6 50 9 19 4 46 9 60 12 56 11 141 35 250 71 63 21 117 38 120 39 3 1 16 6 30 12 14 6 45 19 70 29 111 45 373 194 476 271 5 4 17 13 26 18 131 85 413 372 543 555 22 30 42 57 45 60 4 3 20 29 36 57 16 29 32 53 37 53 4 0 7 4 7 9 0 5 18 39 40 77 47 80 147 308 183 414 92 276 128 500 129 799 0 109 -2 215 -5 237 -4 21 -9 66 -12 99 -7 66 -28 178 -52 270 -8 33 -17 67 -19 75 -19 75 -62 200 -112 325 -54 134 -233 436 -320 540 -4 6 -37 46 -72 89 -35 44 -105 118 -154 165 -49 47 -104 100 -120 116 -17 17 -58 51 -91 75 -33 24 -66 50 -73 57 -7 7 -17 13 -21 13 -4 0 -16 8 -27 19 -11 10 -67 46 -125 81 -57 34 -115 69 -129 78 -14 9 -26 15 -27 14 -1 0 -44 20 -95 45 -110 53 -348 142 -348 129 0 -2 39 -27 88 -57 92 -57 322 -273 322 -303 0 -9 4 -16 8 -16 4 0 18 -19 30 -42 12 -24 34 -63 48 -88 14 -25 32 -63 40 -85 8 -22 17 -47 21 -55 3 -8 7 -17 8 -20 1 -3 11 -36 23 -75 24 -79 26 -88 47 -240 9 -60 15 -139 13 -174 l-3 -64 -44 42 c-24 23 -57 49 -74 58 -17 8 -37 22 -45 29 -7 8 -18 14 -23 14 -5 0 -39 14 -76 31 -38 17 -81 37 -98 44 -203 87 -370 185 -424 249 -9 10 -23 26 -32 35 -9 9 -32 41 -51 71 -86 136 -114 206 -123 305 -4 33 -8 70 -11 83 -6 31 6 122 17 122 5 0 24 -33 42 -72 19 -40 55 -101 81 -135 47 -61 155 -163 211 -199 17 -10 32 -21 35 -24 3 -3 25 -16 50 -29 25 -13 52 -29 60 -35 23 -18 121 -68 125 -64 5 5 -27 42 -53 59 -124 87 -422 398 -422 441 0 5 -8 22 -19 36 -23 34 -99 205 -111 252 -5 19 -14 53 -19 75 -6 22 -14 62 -17 89 l-6 49 27 -7 c15 -4 46 -9 68 -12 23 -3 53 -7 67 -10 14 -4 39 -8 55 -11 71 -12 266 -67 369 -105 120 -44 409 -180 433 -203 8 -8 19 -15 25 -15 17 0 262 -169 352 -242 136 -113 334 -313 393 -399 10 -13 25 -33 35 -43 10 -11 30 -38 45 -60 15 -23 30 -43 33 -46 5 -5 62 -91 96 -145 25 -41 35 -59 74 -135 18 -36 41 -81 52 -100 28 -50 73 -153 111 -255 47 -125 111 -365 122 -460 4 -27 8 -57 10 -65 34 -134 40 -527 11 -760 -21 -167 -93 -468 -137 -575 -7 -17 -13 -32 -14 -35 -11 -33 -98 -234 -105 -245 -4 -5 -31 -55 -60 -110 -29 -55 -59 -107 -66 -116 -8 -8 -14 -21 -14 -27 0 -7 -4 -12 -8 -12 -5 0 -15 -15 -24 -32 -18 -37 -128 -186 -203 -275 -116 -136 -262 -275 -404 -383 -40 -30 -78 -60 -84 -65 -73 -65 -471 -287 -589 -327 -346 -119 -422 -138 -694 -173 -163 -22 -577 -17 -714 8 -47 9 -101 18 -120 21 -55 8 -154 33 -265 66 -38 11 -79 22 -90 25 -11 3 -29 9 -40 14 -11 6 -65 28 -120 50 -141 56 -299 135 -400 201 -13 8 -47 30 -76 48 -80 49 -175 120 -215 159 -7 7 -15 13 -19 13 -23 0 -328 308 -404 410 -36 47 -67 87 -71 90 -3 3 -23 32 -45 65 -21 33 -42 62 -47 63 -4 2 -8 8 -8 12 0 5 -14 30 -31 55 -44 65 -189 353 -189 375 0 10 -4 22 -10 25 -5 3 -17 32 -26 63 -9 31 -23 69 -30 84 -14 26 -86 300 -98 369 -10 56 -25 168 -37 274 -13 111 -6 473 10 565 6 30 13 75 16 100 25 181 113 483 194 665 58 128 146 292 189 352 12 17 22 35 22 40 0 4 10 19 21 33 11 14 32 43 46 64 27 41 38 56 64 85 8 9 22 27 31 39 79 113 302 333 458 452 18 14 47 37 65 53 18 15 38 27 44 27 6 0 11 5 11 10 0 6 5 10 10 10 6 0 20 8 30 18 23 22 268 162 325 187 22 10 54 23 70 30 17 7 62 26 100 43 147 64 342 121 530 157 145 28 142 28 150 14z"/>
 </g>
<g id="layer103" fill="#ffffff" stroke="none">
 <path d="M0 6000 l0 -6000 5990 0 5990 0 0 6000 0 6000 -5990 0 -5990 0 0 -6000z m6175 2509 c2 -3 0 -180 -5 -394 -15 -606 -13 -841 6 -906 21 -72 75 -167 116 -205 80 -74 148 -94 314 -94 99 0 124 -3 135 -16 7 -9 18 -50 24 -92 l10 -77 555 -5 555 -5 10 -32 c8 -31 12 -33 52 -33 38 0 43 -3 43 -22 1 -59 1 -244 1 -255 -1 -10 -410 -13 -2011 -13 l-2011 0 3 143 3 142 48 3 c41 3 47 6 47 26 0 12 5 27 12 34 9 9 147 12 560 12 l548 0 4 23 c3 12 7 44 10 71 11 91 14 93 178 97 132 4 147 6 199 32 95 46 173 146 204 262 15 52 17 118 16 470 -1 226 -4 505 -7 622 l-7 212 44 4 c60 5 338 2 344 -4z m-540 -20 c8 -11 -18 -136 -42 -209 -33 -102 -94 -225 -159 -327 -57 -89 -215 -253 -329 -342 -39 -30 -83 -70 -99 -89 l-29 -34 69 38 c38 20 96 54 130 76 34 21 64 38 68 38 11 0 119 90 160 133 73 77 143 184 175 270 20 51 31 18 31 -86 0 -69 -7 -125 -20 -172 -20 -76 -93 -225 -116 -238 -8 -4 -14 -12 -14 -18 0 -12 -11 -27 -65 -84 -54 -59 -160 -129 -269 -180 -148 -69 -206 -95 -213 -95 -11 0 -168 -81 -184 -96 -8 -8 -20 -14 -24 -14 -5 0 -29 -19 -53 -42 l-44 -43 7 130 c17 332 109 578 309 828 38 48 192 174 271 221 33 20 53 36 44 36 -55 0 -452 -171 -550 -238 -87 -58 -110 -72 -118 -72 -5 0 -11 -3 -13 -8 -4 -10 -84 -72 -92 -72 -4 0 -12 -5 -19 -10 -7 -6 -23 -19 -37 -31 -86 -69 -274 -251 -345 -333 -63 -73 -156 -198 -229 -309 -35 -54 -138 -241 -152 -277 -3 -8 -10 -24 -15 -35 -22 -51 -79 -200 -79 -206 0 -4 -5 -20 -12 -36 -6 -15 -19 -57 -29 -93 -128 -455 -129 -908 -3 -1375 14 -49 28 -97 31 -105 3 -8 7 -19 8 -25 18 -75 186 -437 223 -481 5 -6 29 -42 53 -80 37 -59 106 -153 184 -254 51 -65 301 -303 385 -368 52 -39 100 -76 107 -82 7 -5 16 -10 22 -10 5 0 11 -3 13 -7 2 -5 15 -15 30 -23 14 -8 57 -34 95 -56 136 -83 405 -209 468 -220 6 -1 44 -13 85 -27 99 -33 228 -63 370 -84 195 -29 626 -23 790 11 8 1 31 6 50 9 19 4 46 9 60 12 56 11 141 35 250 71 63 21 117 38 120 39 3 1 16 6 30 12 14 6 45 19 70 29 111 45 373 194 476 271 5 4 17 13 26 18 131 85 413 372 543 555 22 30 42 57 45 60 4 3 20 29 36 57 16 29 32 53 37 53 4 0 7 4 7 9 0 5 18 39 40 77 47 80 147 308 183 414 92 276 128 500 129 799 0 109 -2 215 -5 237 -4 21 -9 66 -12 99 -7 66 -28 178 -52 270 -8 33 -17 67 -19 75 -19 75 -62 200 -112 325 -54 134 -233 436 -320 540 -4 6 -37 46 -72 89 -35 44 -105 118 -154 165 -49 47 -104 100 -120 116 -17 17 -58 51 -91 75 -33 24 -66 50 -73 57 -7 7 -17 13 -21 13 -4 0 -16 8 -27 19 -11 10 -67 46 -125 81 -57 34 -115 69 -129 78 -14 9 -26 15 -27 14 -1 0 -44 20 -95 45 -110 53 -348 142 -348 129 0 -2 39 -27 88 -57 92 -57 322 -273 322 -303 0 -9 4 -16 8 -16 4 0 18 -19 30 -42 12 -24 34 -63 48 -88 14 -25 32 -63 40 -85 8 -22 17 -47 21 -55 3 -8 7 -17 8 -20 1 -3 11 -36 23 -75 24 -79 26 -88 47 -240 9 -60 15 -139 13 -174 l-3 -64 -44 42 c-24 23 -57 49 -74 58 -17 8 -37 22 -45 29 -7 8 -18 14 -23 14 -5 0 -39 14 -76 31 -38 17 -81 37 -98 44 -203 87 -370 185 -424 249 -9 10 -23 26 -32 35 -9 9 -32 41 -51 71 -86 136 -114 206 -123 305 -4 33 -8 70 -11 83 -6 31 6 122 17 122 5 0 24 -33 42 -72 19 -40 55 -101 81 -135 47 -61 155 -163 211 -199 17 -10 32 -21 35 -24 3 -3 25 -16 50 -29 25 -13 52 -29 60 -35 23 -18 121 -68 125 -64 5 5 -27 42 -53 59 -124 87 -422 398 -422 441 0 5 -8 22 -19 36 -23 34 -99 205 -111 252 -5 19 -14 53 -19 75 -6 22 -14 62 -17 89 l-6 49 27 -7 c15 -4 46 -9 68 -12 23 -3 53 -7 67 -10 14 -4 39 -8 55 -11 71 -12 266 -67 369 -105 120 -44 409 -180 433 -203 8 -8 19 -15 25 -15 17 0 262 -169 352 -242 136 -113 334 -313 393 -399 10 -13 25 -33 35 -43 10 -11 30 -38 45 -60 15 -23 30 -43 33 -46 5 -5 62 -91 96 -145 25 -41 35 -59 74 -135 18 -36 41 -81 52 -100 28 -50 73 -153 111 -255 47 -125 111 -365 122 -460 4 -27 8 -57 10 -65 34 -134 40 -527 11 -760 -21 -167 -93 -468 -137 -575 -7 -17 -13 -32 -14 -35 -11 -33 -98 -234 -105 -245 -4 -5 -31 -55 -60 -110 -29 -55 -59 -107 -66 -116 -8 -8 -14 -21 -14 -27 0 -7 -4 -12 -8 -12 -5 0 -15 -15 -24 -32 -18 -37 -128 -186 -203 -275 -116 -136 -262 -275 -404 -383 -40 -30 -78 -60 -84 -65 -73 -65 -471 -287 -589 -327 -346 -119 -422 -138 -694 -173 -163 -22 -577 -17 -714 8 -47 9 -101 18 -120 21 -55 8 -154 33 -265 66 -38 11 -79 22 -90 25 -11 3 -29 9 -40 14 -11 6 -65 28 -120 50 -141 56 -299 135 -400 201 -13 8 -47 30 -76 48 -80 49 -175 120 -215 159 -7 7 -15 13 -19 13 -23 0 -328 308 -404 410 -36 47 -67 87 -71 90 -3 3 -23 32 -45 65 -21 33 -42 62 -47 63 -4 2 -8 8 -8 12 0 5 -14 30 -31 55 -44 65 -189 353 -189 375 0 10 -4 22 -10 25 -5 3 -17 32 -26 63 -9 31 -23 69 -30 84 -14 26 -86 300 -98 369 -10 56 -25 168 -37 274 -13 111 -6 473 10 565 6 30 13 75 16 100 25 181 113 483 194 665 58 128 146 292 189 352 12 17 22 35 22 40 0 4 10 19 21 33 11 14 32 43 46 64 27 41 38 56 64 85 8 9 22 27 31 39 79 113 302 333 458 452 18 14 47 37 65 53 18 15 38 27 44 27 6 0 11 5 11 10 0 6 5 10 10 10 6 0 20 8 30 18 23 22 268 162 325 187 22 10 54 23 70 30 17 7 62 26 100 43 147 64 342 121 530 157 145 28 142 28 150 14z m2360 -2307 c1 -51 -2 -97 -5 -102 -3 -5 -51 -11 -105 -12 l-100 -3 -5 -109 -5 -109 -82 -28 -83 -28 -5 22 c-3 12 -6 74 -8 137 l-3 115 -2 -141 -2 -141 -135 -46 -135 -46 0 173 0 173 39 7 c77 12 55 26 -41 26 -71 -1 -124 -9 -223 -34 -71 -18 -131 -30 -132 -27 -1 3 -4 19 -7 34 -5 22 -12 28 -29 25 -22 -3 -22 -4 -25 -250 -2 -189 -5 -248 -15 -247 -6 0 -122 55 -257 122 l-245 122 -5 125 c-4 108 -7 125 -22 128 -17 3 -18 -26 -20 -464 l-3 -468 -55 -13 c-55 -12 -541 -103 -553 -103 -4 0 -7 30 -7 68 l0 67 118 18 c64 10 153 24 197 32 44 7 117 19 163 25 l82 12 0 64 c0 35 -1 64 -2 64 -2 0 -64 -9 -138 -20 -258 -39 -405 -60 -412 -60 -5 0 -8 16 -8 35 0 19 3 35 6 35 16 0 266 33 399 53 l150 22 3 63 3 63 -33 -6 c-18 -3 -103 -14 -188 -25 -85 -12 -186 -25 -225 -30 -112 -15 -115 -14 -115 20 0 34 -8 32 170 54 69 9 185 23 258 32 l132 17 0 58 c0 56 -1 59 -25 59 -27 0 -450 -47 -502 -55 -32 -6 -33 -5 -33 28 l0 34 88 11 c48 6 164 18 257 27 237 23 215 14 215 85 l0 61 -67 -6 c-38 -4 -131 -13 -208 -20 -77 -8 -173 -17 -213 -20 l-73 -7 3 33 3 34 245 22 c135 12 259 23 275 25 27 3 30 6 30 38 l0 35 -320 0 -320 0 -3 -517 c-2 -386 -5 -518 -14 -518 -11 0 -141 41 -313 99 l-80 28 -5 454 -5 454 -34 3 c-20 2 -37 -2 -42 -10 -11 -16 -11 -1386 -1 -1391 4 -2 28 3 55 10 l47 14 0 180 0 180 28 -3 27 -3 3 -168 c2 -141 5 -168 17 -164 7 3 32 11 54 17 l41 11 0 130 0 130 23 -7 c12 -4 38 -12 57 -19 l35 -12 3 -161 2 -160 -42 -16 c-80 -29 -782 -266 -790 -266 -4 0 -9 384 -10 853 -3 749 -5 852 -18 852 -13 0 -16 -104 -20 -857 l-5 -858 -120 79 c-66 43 -166 108 -222 144 l-103 67 -2 712 -3 713 -112 3 -113 3 0 98 c0 54 3 101 7 104 3 4 909 6 2012 5 l2005 -3 1 -93z m-695 -331 l0 -169 -165 -57 c-91 -32 -168 -55 -172 -52 -7 7 -4 359 3 366 8 8 279 79 307 80 l27 1 0 -169z m-855 -119 l50 -27 3 -632 c2 -620 3 -633 22 -643 20 -11 20 -7 20 620 0 409 3 630 10 630 5 0 66 -28 135 -62 l125 -63 0 -72 c0 -72 0 -73 26 -73 14 0 44 4 67 10 37 8 352 69 462 88 l40 8 3 68 c2 45 -1 72 -9 76 -6 5 11 15 42 25 30 10 60 20 67 23 6 2 12 -3 12 -11 0 -8 -9 -17 -20 -20 -17 -4 -20 -14 -20 -65 0 -52 3 -62 20 -67 16 -5 20 -15 20 -55 0 -40 -4 -50 -20 -55 -17 -5 -20 -15 -20 -65 0 -50 3 -60 20 -65 17 -5 20 -15 20 -57 0 -41 -3 -51 -20 -55 -17 -5 -20 -14 -20 -64 0 -48 4 -60 20 -69 16 -8 20 -21 20 -59 0 -40 -3 -50 -20 -54 -17 -4 -20 -14 -20 -65 0 -51 3 -60 20 -65 17 -4 20 -14 20 -55 0 -42 -3 -52 -20 -57 -17 -5 -20 -15 -20 -65 0 -50 3 -60 20 -65 18 -6 21 -14 18 -63 l-3 -56 -80 -22 c-44 -12 -163 -46 -265 -74 -102 -28 -256 -71 -342 -96 -86 -24 -165 -44 -176 -44 -10 0 -112 45 -226 100 l-206 100 2 307 3 308 49 8 c35 6 51 5 56 -4 4 -6 8 -129 9 -272 2 -256 5 -276 34 -277 4 0 7 286 7 635 0 349 3 635 8 635 4 0 30 -13 57 -28z m-447 -1412 c8 -37 0 -34 137 -55 l50 -8 -35 -7 c-19 -5 -60 -11 -92 -15 l-56 -6 -12 -87 c-14 -97 -23 -91 -35 20 l-7 66 -44 6 c-24 3 -64 9 -89 12 -25 4 -44 8 -41 11 2 2 41 10 87 16 l84 12 7 50 c5 28 11 66 15 85 l6 35 9 -50 c5 -27 12 -66 16 -85z m-327 -374 c2 -2 63 -11 134 -20 155 -20 197 -27 192 -33 -3 -2 -76 -13 -163 -24 -87 -11 -161 -24 -164 -29 -3 -5 -14 -82 -24 -170 -10 -89 -22 -158 -26 -153 -4 4 -15 78 -25 163 -10 85 -20 158 -24 162 -3 4 -78 16 -165 27 -87 11 -161 23 -163 25 -5 5 34 11 197 32 69 8 128 18 131 22 4 4 14 72 23 152 9 80 19 156 23 170 4 15 15 -43 28 -148 12 -95 24 -174 26 -176z m622 -283 l62 -9 -50 -8 c-74 -11 -74 -11 -81 -65 -7 -54 -24 -60 -24 -10 0 47 -16 69 -53 70 -18 0 -41 4 -52 8 -15 7 -6 10 37 16 60 8 68 16 68 76 0 49 15 41 23 -14 l9 -54 61 -10z"/>
 <path d="M4817 6064 c-4 -4 -7 -342 -7 -751 l0 -745 33 7 c17 4 42 11 55 16 l22 9 -2 732 -3 733 -45 3 c-25 2 -49 0 -53 -4z"/>
 <path d="M4977 6064 c-12 -12 -9 -1444 4 -1444 5 0 30 5 55 11 l44 11 -2 712 -3 711 -45 3 c-25 2 -49 0 -53 -4z"/>
 <path d="M6430 5864 c0 -8 17 -22 38 -31 20 -8 115 -51 210 -94 95 -44 175 -79 177 -79 3 0 5 8 5 18 0 13 -50 40 -205 110 -113 50 -210 92 -215 92 -6 0 -10 -7 -10 -16z"/>
 <path d="M7265 5390 c-44 -10 -159 -32 -255 -50 -96 -17 -181 -34 -187 -36 -9 -2 -13 -26 -13 -74 0 -59 3 -70 17 -70 9 0 144 25 300 57 l283 56 0 69 0 68 -32 -1 c-18 0 -69 -9 -113 -19z"/>
 <path d="M7115 5114 c-143 -29 -270 -56 -282 -59 -21 -5 -23 -11 -23 -76 l0 -71 47 7 c38 5 429 87 531 110 20 5 22 11 22 75 0 60 -2 70 -17 69 -10 -1 -135 -25 -278 -55z"/>
 <path d="M7335 4914 c-33 -7 -154 -34 -270 -59 -115 -25 -220 -47 -232 -50 -21 -5 -23 -11 -23 -75 0 -51 4 -70 13 -70 14 0 132 25 410 86 l177 39 0 67 c0 37 -3 69 -7 71 -5 2 -35 -2 -68 -9z"/>
 <path d="M7115 4620 c-143 -33 -270 -62 -282 -65 -21 -5 -23 -11 -23 -75 0 -59 3 -70 17 -70 17 0 171 34 313 70 41 10 119 28 173 40 l97 22 0 69 c0 59 -2 69 -17 68 -10 0 -135 -27 -278 -59z"/>
 </g>

</svg>