<!DOCTYPE svg PUBLIC "-//W3C//DTD SVG 20010904//EN" "http://www.w3.org/TR/2001/REC-SVG-20010904/DTD/svg10.dtd">
<svg version="1.0" xmlns="http://www.w3.org/2000/svg" width="1200px" height="274px" viewBox="0 0 12000 2740" preserveAspectRatio="xMidYMid meet">
<g id="layer101" fill="#2b93cd" stroke="none">
 <path d="M0 1370 l0 -1370 6000 0 6000 0 0 1370 0 1370 -6000 0 -6000 0 0 -1370z"/>
 </g>
<g id="layer102" fill="#feffff" stroke="none">
 <path d="M0 1370 l0 -1370 6000 0 6000 0 0 1370 0 1370 -6000 0 -6000 0 0 -1370z m9126 277 c27 -31 25 -63 -6 -107 l-17 -25 -237 -3 -236 -2 0 -145 0 -145 196 0 c115 0 203 -4 215 -10 27 -15 51 -65 43 -94 -3 -13 -16 -33 -28 -45 -20 -19 -35 -21 -221 -23 l-200 -3 -3 -142 -3 -143 226 0 c136 0 234 -4 246 -10 33 -18 52 -66 40 -103 -20 -60 -30 -62 -318 -65 -168 -2 -276 1 -302 8 -73 19 -71 7 -71 544 0 318 4 483 11 499 23 51 34 52 349 47 l292 -5 24 -28z m-7944 14 c121 -33 221 -109 264 -199 28 -60 30 -149 4 -210 -50 -117 -161 -179 -430 -242 -190 -44 -255 -108 -201 -197 32 -52 101 -85 186 -91 101 -6 128 1 228 58 48 28 97 50 108 50 11 0 34 -14 51 -30 25 -26 29 -35 23 -63 -4 -17 -12 -38 -18 -45 -20 -25 -143 -91 -212 -113 -177 -57 -385 -5 -486 122 -48 61 -59 90 -59 163 0 85 35 154 104 205 82 62 79 61 356 128 82 20 152 55 179 89 26 33 28 94 4 130 -39 60 -143 104 -246 104 -83 0 -179 -37 -280 -106 -55 -38 -81 -42 -115 -18 -61 43 -46 106 38 163 168 111 342 147 502 102z m1182 -19 c122 -57 226 -184 255 -313 6 -25 11 -186 11 -367 l0 -323 -25 -24 c-17 -18 -35 -25 -62 -25 -43 0 -52 5 -76 40 -15 22 -17 60 -17 345 0 314 -1 321 -24 370 -26 56 -90 119 -145 143 -22 10 -65 16 -111 16 -122 0 -202 -53 -256 -169 -23 -49 -24 -56 -24 -373 l0 -323 -25 -24 c-30 -31 -92 -34 -126 -6 l-24 19 0 349 c0 334 1 350 22 407 46 121 158 230 282 274 57 19 81 22 172 19 93 -3 113 -7 173 -35z m787 19 c23 -19 24 -23 27 -209 l3 -189 137 -5 c121 -4 144 -7 192 -30 126 -59 201 -167 202 -294 1 -90 -17 -147 -63 -210 -80 -109 -179 -144 -412 -144 -164 0 -205 10 -226 56 -8 18 -11 167 -11 504 l0 478 26 31 c20 25 34 31 64 31 22 0 47 -8 61 -19z m1443 -12 c32 -38 33 -70 2 -106 l-24 -28 -234 -5 -233 -5 0 -140 0 -140 202 -5 c186 -5 204 -7 223 -25 34 -34 36 -77 5 -113 l-26 -32 -202 -2 -202 -3 0 -140 0 -140 231 -5 c208 -4 234 -7 252 -24 51 -45 31 -127 -36 -146 -24 -8 -128 -10 -304 -8 l-268 3 -24 25 -25 25 -2 499 -2 499 27 24 c27 23 28 23 321 23 l293 0 26 -31z m397 12 c23 -19 24 -25 29 -208 l5 -188 102 -3 c85 -2 109 1 140 17 75 38 102 89 103 192 0 86 42 165 100 189 63 26 140 -22 140 -88 0 -11 -16 -36 -35 -56 -32 -34 -35 -43 -35 -95 0 -81 -25 -155 -67 -202 l-35 -39 37 -41 c57 -64 78 -120 78 -214 1 -66 -4 -90 -25 -137 -36 -78 -109 -149 -184 -179 -55 -22 -73 -23 -251 -24 -189 0 -192 0 -217 24 l-26 24 0 501 c0 499 0 500 22 523 27 29 86 31 119 4z m2040 1 c79 -22 190 -82 218 -118 42 -53 13 -127 -55 -140 -29 -5 -44 0 -92 29 -90 55 -147 70 -255 65 -116 -5 -187 -37 -267 -117 -85 -86 -104 -133 -104 -261 0 -127 18 -174 96 -256 92 -97 225 -143 358 -124 58 8 129 37 200 81 42 26 79 21 116 -16 56 -56 15 -126 -108 -187 -95 -46 -163 -62 -270 -61 -172 2 -290 52 -414 177 -118 119 -164 228 -164 394 0 152 60 284 181 397 75 69 162 119 245 139 86 21 236 20 315 -2z m1194 -7 c35 -34 34 -88 -1 -120 l-27 -25 -233 0 -234 0 0 -438 0 -439 -25 -23 c-35 -32 -92 -30 -122 5 l-23 26 0 495 0 495 25 24 24 25 296 0 296 0 24 -25z m1253 3 c11 -13 37 -69 58 -125 20 -57 39 -103 43 -103 54 -4 372 -1 379 4 5 3 20 34 32 68 39 106 69 165 86 172 8 3 31 6 49 6 27 0 39 -7 59 -33 15 -19 26 -40 26 -48 0 -8 -48 -140 -106 -294 -58 -154 -137 -362 -174 -462 -97 -257 -95 -253 -165 -253 -48 0 -70 25 -109 125 -157 404 -326 863 -326 887 0 68 100 106 148 56z m1093 -4 l24 -26 3 -329 c1 -181 6 -329 10 -329 4 0 25 26 47 57 22 31 65 91 96 132 31 42 118 162 194 266 76 105 152 205 169 223 37 40 82 43 123 8 l28 -24 3 -464 c3 -505 2 -527 -48 -553 -41 -21 -64 -19 -97 9 l-28 24 -3 331 c-1 182 -6 331 -10 331 -4 -1 -56 -69 -117 -152 -438 -602 -402 -558 -457 -558 -46 0 -74 25 -83 72 -3 18 -5 241 -3 495 l3 461 24 26 c34 36 88 36 122 0z"/>
 <path d="M3182 923 l3 -158 105 -3 c129 -3 179 12 215 67 14 20 27 51 31 69 9 47 -20 116 -64 150 -34 26 -42 27 -164 30 l-129 4 3 -159z"/>
 <path d="M5024 1067 c-2 -7 -3 -78 -2 -157 l3 -145 113 -3 c130 -3 166 8 210 66 35 47 38 135 6 179 -47 63 -75 73 -206 73 -88 0 -120 -3 -124 -13z"/>
 <path d="M9654 1224 c16 -62 110 -294 116 -287 9 10 120 292 120 304 0 5 -54 9 -121 9 l-121 0 6 -26z"/>
 </g>

</svg>