<!DOCTYPE svg PUBLIC "-//W3C//DTD SVG 20010904//EN" "http://www.w3.org/TR/2001/REC-SVG-20010904/DTD/svg10.dtd">
<svg version="1.0" xmlns="http://www.w3.org/2000/svg" width="1200px" height="330px" viewBox="0 0 12000 3300" preserveAspectRatio="xMidYMid meet">
<g id="layer101" fill="#85c147" stroke="none">
 <path d="M0 1650 l0 -1650 6000 0 6000 0 0 1650 0 1650 -6000 0 -6000 0 0 -1650z"/>
 </g>
<g id="layer102" fill="#fdfedf" stroke="none">
 <path d="M0 1650 l0 -1650 6000 0 6000 0 0 1650 0 1650 -6000 0 -6000 0 0 -1650z m1278 485 c174 -41 279 -154 290 -311 11 -173 -53 -256 -288 -372 -80 -39 -161 -85 -181 -101 -97 -81 -92 -209 11 -279 32 -22 43 -23 130 -20 85 4 102 8 166 40 41 21 76 33 83 29 8 -5 11 -28 9 -67 -3 -54 -6 -60 -36 -81 -107 -71 -304 -78 -432 -13 -108 55 -160 145 -160 280 0 55 6 78 31 129 41 81 99 127 259 204 196 94 243 142 242 244 -1 72 -27 121 -86 157 -40 25 -60 30 -129 34 -93 5 -167 -15 -258 -68 -70 -42 -83 -38 -87 27 -4 68 8 87 69 119 116 58 251 76 367 49z m1077 1 c141 -30 239 -103 294 -219 47 -99 52 -154 49 -587 l-3 -395 -37 -9 c-24 -6 -52 -6 -75 0 l-38 9 -5 435 -5 435 -28 57 c-53 108 -141 154 -278 146 -96 -6 -160 -36 -206 -96 -60 -79 -63 -102 -63 -551 0 -223 -4 -412 -9 -420 -12 -18 -102 -26 -130 -12 l-22 12 3 442 c4 503 4 501 86 609 96 126 283 184 467 144z m4570 -1 c95 -20 211 -78 230 -115 18 -34 20 -101 4 -117 -14 -14 -32 -8 -85 28 -77 52 -141 72 -240 73 -83 1 -96 -2 -157 -32 -139 -69 -199 -200 -200 -437 0 -231 71 -383 211 -452 50 -25 68 -28 147 -28 97 1 145 17 249 83 62 40 76 31 76 -45 0 -61 -18 -86 -86 -121 -232 -119 -524 -50 -660 156 -68 102 -114 270 -114 417 0 78 23 215 49 287 82 235 316 358 576 303z m-3755 -10 c6 -4 10 -93 10 -224 l0 -218 123 -6 c264 -12 398 -106 437 -305 38 -191 -48 -354 -217 -412 -60 -21 -92 -24 -261 -28 -166 -4 -196 -2 -217 12 l-25 16 0 585 0 584 23 4 c26 6 113 0 127 -8z m1901 -6 c5 -8 9 -114 8 -239 0 -124 0 -240 0 -259 l1 -34 88 5 c168 10 194 40 318 365 31 81 65 156 76 166 12 10 36 17 62 17 64 0 86 -9 86 -35 0 -26 -128 -345 -172 -428 -17 -32 -51 -75 -74 -96 l-43 -38 43 -21 c107 -52 165 -133 173 -245 8 -110 -14 -178 -80 -242 -86 -83 -139 -97 -390 -103 -189 -4 -210 -3 -227 13 -19 18 -20 35 -20 601 0 660 -10 595 88 590 33 -2 58 -8 63 -17z m4039 12 c22 -6 31 -25 76 -156 l50 -150 251 -3 250 -2 53 150 c33 96 59 154 71 160 24 13 105 13 130 -1 15 -7 18 -16 13 -32 -8 -29 -110 -318 -134 -382 -11 -27 -40 -108 -65 -180 -26 -71 -69 -193 -97 -270 -27 -77 -63 -178 -80 -225 -37 -106 -52 -120 -128 -120 -105 0 -90 -25 -237 386 -73 203 -166 463 -208 579 -41 115 -75 217 -75 226 0 26 71 37 130 20z m1215 -1 l25 -10 0 -482 c0 -266 0 -490 0 -498 0 -8 26 32 57 90 111 207 426 776 455 823 37 59 71 77 141 77 40 0 59 -5 75 -20 l22 -21 0 -569 c0 -553 -1 -570 -19 -580 -27 -14 -94 -13 -114 3 -15 11 -17 55 -19 487 l-3 474 -62 -119 c-68 -130 -90 -171 -301 -555 -163 -296 -167 -300 -273 -300 -119 0 -109 -55 -109 615 0 536 1 575 18 584 22 13 73 14 107 1z m-5671 -42 c6 -26 6 -46 -2 -63 l-11 -25 -243 -2 -243 -3 -3 -212 -2 -213 212 -2 213 -3 3 -48 c5 -78 7 -77 -224 -77 l-204 0 2 -187 3 -188 235 -3 c207 -2 237 -4 248 -19 15 -20 16 -67 2 -94 -10 -18 -24 -19 -310 -19 -287 0 -301 1 -320 20 -20 20 -20 33 -20 580 0 548 0 560 20 580 20 20 31 20 328 18 l307 -3 9 -37z m3334 30 c16 -16 15 -103 -1 -117 -9 -7 -90 -12 -228 -13 l-214 -3 -3 -522 c-2 -522 -2 -522 -24 -534 -27 -14 -117 -6 -129 12 -5 8 -8 264 -6 587 2 555 3 574 21 588 27 19 565 21 584 2z m856 -30 c6 -26 6 -46 -2 -63 l-11 -25 -243 -2 -243 -3 -3 -212 -2 -213 212 -2 213 -3 3 -48 c5 -78 7 -77 -224 -77 l-204 0 2 -187 3 -188 235 -3 c207 -2 237 -4 248 -19 15 -20 16 -67 2 -94 -10 -18 -24 -19 -310 -19 -287 0 -301 1 -320 20 -20 20 -20 33 -20 580 0 548 0 560 20 580 20 20 31 20 328 18 l307 -3 9 -37z"/>
 <path d="M3180 1305 l0 -247 123 4 c106 3 128 7 167 28 24 14 58 44 74 68 55 78 47 229 -15 305 -48 58 -102 78 -234 84 l-115 6 0 -248z"/>
 <path d="M5079 1456 c-2 -2 -3 -92 -1 -200 l3 -196 97 0 c213 1 292 55 292 201 0 85 -31 138 -102 173 -47 24 -63 26 -168 26 -64 0 -119 -2 -121 -4z"/>
 <path d="M9285 1673 c4 -10 38 -110 76 -223 38 -113 81 -238 96 -279 l26 -75 13 30 c15 33 194 549 194 558 0 3 -93 6 -206 6 -192 0 -206 -1 -199 -17z"/>
 </g>
<g id="layer103" fill="#fffffe" stroke="none">
 <path d="M0 1650 l0 -1650 6000 0 6000 0 0 1650 0 1650 -6000 0 -6000 0 0 -1650z m1299 489 c106 -25 210 -110 252 -204 31 -72 32 -211 1 -276 -32 -66 -104 -130 -207 -184 -49 -26 -91 -47 -93 -46 -1 1 -28 -12 -61 -28 -104 -53 -146 -101 -151 -171 -5 -63 0 -79 31 -115 65 -74 191 -79 319 -14 64 32 105 37 114 13 3 -9 6 -37 6 -63 0 -71 -34 -97 -167 -131 -94 -24 -150 -25 -226 -5 -86 22 -151 59 -191 108 -51 62 -69 118 -69 212 0 67 4 88 27 133 46 91 112 141 306 235 124 60 172 100 193 161 32 92 -29 200 -126 224 -48 13 -159 18 -174 9 -5 -3 -23 -8 -39 -11 -16 -3 -30 -10 -32 -16 -2 -5 -11 -10 -21 -10 -9 0 -34 -12 -55 -26 -21 -15 -52 -27 -70 -28 l-31 -1 -3 67 c-3 63 -1 68 29 96 76 71 291 106 438 71z m1061 4 c8 -3 24 -8 35 -10 35 -6 119 -45 152 -71 74 -55 134 -171 153 -292 5 -36 10 -237 10 -447 l0 -382 -22 -13 c-29 -15 -140 -12 -150 5 -4 7 -8 183 -8 392 0 378 -7 481 -36 536 -46 89 -130 137 -245 139 -69 1 -87 -1 -106 -13 -7 -5 -17 -6 -22 -3 -5 4 -11 3 -13 -2 -1 -4 -18 -18 -35 -31 -18 -12 -45 -42 -59 -67 -51 -86 -54 -117 -54 -551 0 -278 -3 -404 -11 -409 -6 -3 -41 -6 -77 -6 -51 0 -69 5 -79 18 -10 13 -12 112 -10 438 3 367 5 429 20 481 20 67 54 129 98 179 39 45 167 107 238 116 58 7 194 3 221 -7z m4515 7 c-4 -7 2 -9 17 -5 13 4 44 -1 69 -9 24 -9 51 -16 60 -16 9 0 22 -7 29 -15 7 -9 15 -13 18 -11 9 9 91 -57 98 -78 20 -60 5 -136 -26 -136 -6 0 -40 18 -75 41 -91 57 -182 83 -260 74 -33 -3 -69 -7 -80 -8 -11 -1 -24 -5 -30 -10 -5 -5 -28 -18 -50 -30 -52 -29 -110 -114 -137 -201 -18 -58 -22 -96 -22 -206 0 -147 13 -211 62 -308 32 -64 125 -153 150 -144 7 2 12 -1 12 -8 0 -6 5 -8 10 -5 6 3 10 3 10 -2 0 -12 160 -8 208 6 46 13 84 32 146 75 48 32 51 32 72 1 12 -19 15 -39 12 -77 -5 -44 -11 -57 -39 -80 -18 -15 -48 -33 -66 -39 -18 -6 -33 -15 -33 -20 0 -6 -4 -8 -9 -5 -5 3 -22 1 -37 -4 -16 -5 -40 -11 -54 -13 -14 -2 -33 -7 -43 -12 -19 -8 -131 -1 -192 13 -76 17 -170 70 -231 130 -113 113 -174 285 -174 488 1 322 116 520 345 596 25 9 109 19 223 26 14 1 21 -2 17 -8z m-3725 -9 l25 -7 5 -219 5 -220 115 -6 c63 -4 135 -12 160 -19 126 -34 208 -101 261 -214 26 -56 29 -73 30 -165 0 -93 -2 -108 -29 -165 -20 -43 -46 -77 -81 -107 -28 -24 -53 -42 -55 -39 -2 3 -12 -2 -22 -11 -11 -9 -26 -17 -34 -18 -35 -2 -56 -8 -70 -16 -8 -6 -103 -12 -210 -13 -183 -4 -197 -2 -220 16 l-25 20 0 583 0 583 25 13 c27 14 79 15 120 4z m1904 -3 l26 -11 2 -261 3 -261 64 -3 c139 -7 213 59 284 253 8 22 27 72 42 110 14 39 31 84 36 100 17 57 42 77 97 83 58 5 112 -14 112 -40 0 -19 -136 -361 -170 -427 -11 -23 -41 -62 -65 -88 -25 -25 -44 -47 -42 -48 23 -11 99 -64 120 -84 76 -69 105 -201 71 -314 -26 -87 -102 -163 -197 -196 -37 -13 -76 -21 -87 -18 -11 3 -20 1 -20 -4 0 -5 -83 -9 -189 -9 -171 0 -191 2 -212 19 l-24 19 -3 584 -2 585 22 11 c31 14 101 15 132 0z m4081 -12 c7 -8 29 -66 49 -128 21 -62 42 -125 48 -140 l10 -28 238 0 c178 0 240 3 247 13 5 6 18 39 28 72 10 33 21 65 25 70 4 6 15 37 24 70 23 78 43 95 113 95 30 0 63 -5 74 -10 33 -18 33 -19 -100 -390 -29 -80 -68 -186 -87 -235 -19 -50 -34 -96 -34 -103 0 -7 -4 -20 -9 -30 -6 -9 -22 -51 -36 -92 -15 -41 -30 -84 -34 -95 -5 -11 -16 -42 -26 -70 -51 -145 -65 -179 -78 -192 -11 -11 -37 -15 -98 -15 -102 1 -105 4 -152 137 -19 55 -54 152 -76 215 -23 63 -49 135 -57 160 -8 25 -22 59 -30 77 -8 17 -14 35 -14 41 0 5 -9 31 -19 58 -11 27 -36 96 -56 154 -20 58 -39 112 -43 120 -3 8 -22 65 -43 125 l-38 110 22 19 c18 15 33 17 82 13 36 -3 63 -11 70 -21z m1206 7 c8 -8 11 -160 10 -483 -1 -317 1 -470 8 -465 6 3 31 45 57 93 26 48 77 141 114 207 37 66 83 149 102 185 20 36 49 91 67 122 17 31 41 76 54 100 13 24 36 65 52 93 17 27 37 63 46 80 32 59 102 86 183 71 70 -13 66 25 66 -616 l0 -579 -21 -12 c-32 -16 -119 -6 -136 17 -10 14 -13 109 -13 463 l-1 446 -21 -40 c-22 -43 -258 -477 -291 -535 -11 -19 -37 -66 -58 -105 -20 -38 -54 -100 -74 -138 -50 -92 -88 -117 -177 -117 -81 0 -95 5 -113 41 -13 24 -15 116 -15 591 0 310 4 569 9 577 5 8 16 11 26 8 10 -5 14 -3 9 4 -9 15 102 7 117 -8z m-5700 -3 c15 -8 19 -22 19 -60 0 -60 -28 -97 -63 -84 -37 13 -377 17 -377 4 0 -7 -6 -8 -19 0 -25 13 -34 13 -26 0 3 -5 1 -10 -4 -10 -8 0 -11 -66 -11 -200 l0 -199 202 0 c183 0 204 -2 216 -18 17 -23 10 -112 -9 -124 -8 -5 -103 -9 -211 -9 l-198 0 0 -180 c0 -180 0 -180 23 -181 12 0 120 -1 239 -1 l218 0 12 -39 c9 -33 9 -45 -5 -74 l-17 -35 -294 0 c-311 0 -340 4 -350 45 -8 30 -8 1097 -1 1128 4 13 16 29 28 35 30 14 601 16 628 2z m3351 -7 c12 -11 18 -30 18 -62 -1 -82 2 -81 -244 -81 l-216 0 0 -517 c0 -285 -4 -524 -9 -532 -10 -15 -136 -21 -159 -7 -9 5 -12 137 -12 589 0 320 4 587 8 593 20 30 52 33 321 34 242 0 277 -2 293 -17z m842 1 c10 -10 16 -33 16 -64 0 -79 -5 -80 -260 -78 l-215 2 220 6 220 6 -213 2 c-132 1 -221 -2 -233 -8 -18 -10 -19 -23 -19 -210 l0 -200 205 0 c229 0 225 1 225 -76 0 -72 -8 -74 -232 -74 l-198 0 0 -180 0 -180 240 0 239 0 12 -40 c11 -34 10 -46 -4 -75 l-17 -35 -292 0 c-161 0 -303 3 -316 6 -51 14 -53 35 -52 588 1 539 6 601 43 616 12 5 156 9 319 9 257 1 299 -1 312 -15z m-4356 -141 c-43 -2 -113 -2 -155 0 -43 1 -8 3 77 3 85 0 120 -2 78 -3z"/>
 <path d="M3195 1537 c-13 -7 -15 -44 -15 -232 0 -148 4 -226 11 -230 6 -4 51 -9 101 -11 70 -4 96 -1 114 11 13 8 31 15 40 15 8 0 35 20 59 45 106 108 74 305 -60 376 -28 14 -56 24 -63 21 -7 -2 -18 1 -26 7 -15 13 -138 11 -161 -2z m192 -464 c-4 -3 -10 -3 -14 0 -3 4 0 7 7 7 7 0 10 -3 7 -7z"/>
 <path d="M5080 1268 c0 -101 4 -187 8 -193 8 -12 202 -16 202 -4 0 4 15 11 34 14 54 11 96 42 116 88 36 78 21 170 -37 223 -48 44 -86 54 -209 54 l-114 0 0 -182z"/>
 <path d="M9295 1663 c11 -28 72 -207 120 -348 24 -71 49 -143 55 -160 l13 -30 7 25 c5 14 34 97 65 185 32 88 63 178 69 200 7 22 18 53 24 68 7 15 15 39 18 52 l6 25 -192 0 c-179 0 -192 -1 -185 -17z"/>
 </g>

</svg>